<?xml version="1.0" standalone="no"?>
<!DOCTYPE svg PUBLIC "-//W3C//DTD SVG 20010904//EN"
 "http://www.w3.org/TR/2001/REC-SVG-20010904/DTD/svg10.dtd">
<svg version="1.0" xmlns="http://www.w3.org/2000/svg"
 width="700.000000pt" height="700.000000pt" viewBox="0 0 700.000000 700.000000"
 preserveAspectRatio="xMidYMid meet">
<metadata>
Created by potrace 1.14, written by Peter Selinger 2001-2017
</metadata>
<g transform="translate(0.000000,700.000000) scale(0.100000,-0.100000)"
fill="#000000" stroke="none">
<path d="M2127 4871 l-788 -788 11 -44 c6 -24 12 -51 14 -59 2 -8 10 -35 17
-60 7 -25 13 -49 15 -55 2 -9 141 -529 185 -690 10 -38 37 -137 59 -220 51
-196 62 -234 105 -395 21 -74 38 -142 40 -150 3 -14 91 -338 100 -370 3 -8 10
-38 16 -67 l11 -51 82 -22 c44 -11 104 -28 131 -35 45 -14 261 -71 515 -139
52 -14 172 -46 265 -71 94 -25 177 -47 186 -50 10 -2 66 -17 125 -33 60 -16
206 -55 324 -87 118 -31 287 -77 374 -101 88 -24 162 -41 165 -38 4 2 360 358
792 790 774 774 786 787 779 818 -4 17 -20 76 -34 131 -15 55 -29 107 -31 115
-2 8 -11 41 -19 73 -9 31 -23 83 -32 115 -8 31 -17 64 -19 72 -1 8 -9 35 -16
60 -7 25 -13 50 -15 55 -2 12 -18 69 -124 465 -46 168 -100 370 -121 450 -21
80 -61 228 -89 330 -27 102 -53 199 -56 215 -7 43 -20 52 -109 74 -44 11 -123
32 -175 46 -137 38 -470 127 -725 195 -121 32 -430 115 -687 184 -256 69 -470
126 -475 126 -4 0 -363 -355 -796 -789z m1123 239 c85 -23 214 -57 285 -76 72
-19 162 -43 200 -53 161 -44 690 -186 823 -221 79 -21 147 -41 152 -46 5 -5
52 -171 105 -369 53 -198 139 -520 191 -715 53 -195 109 -404 125 -465 l29
-110 -608 -607 -607 -608 -225 60 c-124 34 -274 74 -335 90 -60 16 -153 41
-205 55 -52 14 -102 27 -110 29 -8 3 -51 14 -95 26 -44 12 -215 57 -380 102
-165 44 -303 83 -308 87 -7 7 -20 52 -91 321 -19 69 -68 253 -110 410 -90 331
-127 469 -132 490 -1 8 -24 92 -49 185 -62 227 -67 247 -61 254 3 3 274 277
603 608 508 510 602 601 623 598 14 -2 95 -22 180 -45z"/>
<path d="M3245 4564 c-5 -1 -23 -5 -40 -9 -21 -5 -128 -105 -387 -363 -197
-196 -362 -368 -368 -382 -19 -47 -17 -75 15 -195 18 -66 74 -275 124 -465 51
-190 97 -357 102 -371 20 -52 61 -78 170 -108 127 -36 408 -112 429 -116 8 -2
107 -29 220 -59 220 -60 243 -63 293 -42 34 14 720 695 743 737 21 38 16 84
-22 224 -19 72 -37 137 -39 145 -1 8 -17 67 -35 130 -17 63 -33 124 -35 135
-3 11 -29 109 -59 218 -57 209 -73 242 -135 266 -21 8 -297 83 -446 121 -16 4
-131 35 -255 68 -261 69 -262 70 -275 66z"/>
</g>
</svg>
