<svg width="100" height="100" viewBox="0 0 100 100" fill="none" xmlns="http://www.w3.org/2000/svg">
<path d="M56.3259 36.9902C57.0404 36.9902 57.7007 37.3714 58.058 37.9902L64.4033 48.9806C64.7605 49.5994 64.7605 50.3618 64.4033 50.9806L58.058 61.971C57.7007 62.5898 57.0404 62.971 56.3259 62.971L43.6353 62.971C42.9208 62.971 42.2605 62.5898 41.9033 61.971L35.558 50.9806C35.2007 50.3618 35.2007 49.5994 35.558 48.9806L41.9033 37.9902C42.2605 37.3714 42.9208 36.9902 43.6353 36.9902L56.3259 36.9902Z" fill="white"/>
<path d="M36.7128 27L63.2487 27L76.5167 49.9808L63.2487 72.9615L36.7128 72.9615L23.4449 49.9808L36.7128 27Z" stroke="white" stroke-width="6"/>
</svg>
